<svg width="69" height="13" viewBox="0 0 69 13" fill="none" xmlns="http://www.w3.org/2000/svg">
<path d="M5.84 4.96H3.864L3.344 7.568H5.32L5.84 4.96ZM8.864 3.912L8.76 4.512C8.73333 4.66667 8.66933 4.78133 8.568 4.856C8.472 4.92533 8.32267 4.96 8.12 4.96H7.016L6.496 7.568H7.928C8.08267 7.568 8.192 7.61333 8.256 7.704C8.32533 7.78933 8.344 7.94133 8.312 8.16L8.24 8.616H6.344L5.672 12H5.024C4.95467 12 4.89067 11.984 4.832 11.952C4.77333 11.92 4.72267 11.8773 4.68 11.824C4.64267 11.7707 4.616 11.7067 4.6 11.632C4.584 11.5573 4.584 11.4747 4.6 11.384L5.168 8.616H3.192L2.624 11.456C2.592 11.6533 2.51467 11.7947 2.392 11.88C2.26933 11.96 2.13067 12 1.976 12H1.336L2.016 8.616H0.848C0.698667 8.616 0.589333 8.57333 0.52 8.488C0.456 8.39733 0.44 8.24267 0.472 8.024L0.536 7.568H2.168L2.688 4.96H0.832L0.936 4.368C0.962667 4.21333 1.024 4.09867 1.12 4.024C1.22133 3.94933 1.37333 3.912 1.576 3.912H2.84L3.416 1.048C3.448 0.888 3.52 0.762666 3.632 0.672C3.74933 0.581333 3.888 0.535999 4.048 0.535999H4.688L4.016 3.912H5.992L6.664 0.535999H7.296C7.45067 0.535999 7.57067 0.586666 7.656 0.688C7.74667 0.789333 7.77867 0.917333 7.752 1.072L7.168 3.912H8.864ZM13.9213 10.992C14.2946 10.992 14.6279 10.9413 14.9213 10.84C15.2199 10.7333 15.4706 10.5867 15.6733 10.4C15.8813 10.208 16.0386 9.98133 16.1453 9.72C16.2573 9.45333 16.3133 9.16 16.3133 8.84C16.3133 8.44533 16.2466 8.10933 16.1133 7.832C15.9853 7.54933 15.8093 7.32 15.5853 7.144C15.3666 6.968 15.1133 6.84 14.8253 6.76C14.5373 6.67467 14.2359 6.632 13.9213 6.632C13.6066 6.632 13.3053 6.67467 13.0173 6.76C12.7293 6.84 12.4733 6.968 12.2493 7.144C12.0306 7.32 11.8546 7.54933 11.7213 7.832C11.5933 8.10933 11.5293 8.44533 11.5293 8.84C11.5293 9.16 11.5826 9.45333 11.6893 9.72C11.8013 9.98133 11.9586 10.208 12.1613 10.4C12.3693 10.5867 12.6199 10.7333 12.9133 10.84C13.2119 10.9413 13.5479 10.992 13.9213 10.992ZM13.9213 1.512C13.5799 1.512 13.2786 1.56267 13.0173 1.664C12.7613 1.76533 12.5453 1.904 12.3693 2.08C12.1986 2.256 12.0679 2.46133 11.9773 2.696C11.8919 2.93067 11.8493 3.18133 11.8493 3.448C11.8493 3.70933 11.8866 3.96267 11.9613 4.208C12.0359 4.45333 12.1559 4.672 12.3213 4.864C12.4866 5.05067 12.6999 5.20267 12.9613 5.32C13.2279 5.432 13.5479 5.488 13.9213 5.488C14.2946 5.488 14.6119 5.432 14.8733 5.32C15.1399 5.20267 15.3559 5.05067 15.5213 4.864C15.6866 4.672 15.8066 4.45333 15.8813 4.208C15.9559 3.96267 15.9933 3.70933 15.9933 3.448C15.9933 3.18133 15.9479 2.93067 15.8573 2.696C15.7719 2.46133 15.6413 2.256 15.4653 2.08C15.2946 1.904 15.0786 1.76533 14.8173 1.664C14.5613 1.56267 14.2626 1.512 13.9213 1.512ZM15.5613 6.024C16.2759 6.22667 16.8253 6.56533 17.2093 7.04C17.5933 7.51467 17.7853 8.12267 17.7853 8.864C17.7853 9.36533 17.6893 9.81867 17.4973 10.224C17.3106 10.624 17.0466 10.9653 16.7053 11.248C16.3693 11.5307 15.9639 11.7493 15.4893 11.904C15.0146 12.0533 14.4919 12.128 13.9213 12.128C13.3506 12.128 12.8279 12.0533 12.3533 11.904C11.8786 11.7493 11.4706 11.5307 11.1293 11.248C10.7879 10.9653 10.5239 10.624 10.3372 10.224C10.1506 9.81867 10.0573 9.36533 10.0573 8.864C10.0573 8.12267 10.2493 7.51467 10.6333 7.04C11.0173 6.56533 11.5666 6.22667 12.2813 6.024C11.6786 5.8 11.2226 5.46667 10.9133 5.024C10.6093 4.576 10.4572 4.04267 10.4572 3.424C10.4572 3.00267 10.5399 2.608 10.7053 2.24C10.8706 1.872 11.1053 1.552 11.4093 1.28C11.7133 1.008 12.0759 0.794666 12.4973 0.639999C12.9239 0.485332 13.3986 0.407999 13.9213 0.407999C14.4386 0.407999 14.9106 0.485332 15.3373 0.639999C15.7639 0.794666 16.1293 1.008 16.4333 1.28C16.7373 1.552 16.9719 1.872 17.1373 2.24C17.3026 2.608 17.3853 3.00267 17.3853 3.424C17.3853 4.04267 17.2306 4.576 16.9213 5.024C16.6173 5.46667 16.1639 5.8 15.5613 6.024ZM24.4025 7.864V3.136C24.4025 2.99733 24.4078 2.84533 24.4185 2.68C24.4292 2.51467 24.4452 2.34667 24.4665 2.176L20.2905 7.864H24.4025ZM27.3865 7.864V8.68C27.3865 8.76533 27.3598 8.83733 27.3065 8.896C27.2585 8.95467 27.1812 8.984 27.0745 8.984H25.6505V12H24.4025V8.984H19.3145C19.2078 8.984 19.1145 8.95467 19.0345 8.896C18.9598 8.832 18.9118 8.75467 18.8905 8.664L18.7465 7.936L24.3225 0.535999H25.6505V7.864H27.3865ZM39.2438 6.272C39.2438 7.13067 39.1078 7.912 38.8358 8.616C38.5638 9.32 38.1798 9.92267 37.6838 10.424C37.1878 10.9253 36.5904 11.3147 35.8918 11.592C35.1984 11.864 34.4304 12 33.5878 12H29.3078V0.535999H33.5878C34.4304 0.535999 35.1984 0.674666 35.8918 0.952C36.5904 1.224 37.1878 1.61333 37.6838 2.12C38.1798 2.62133 38.5638 3.224 38.8358 3.928C39.1078 4.632 39.2438 5.41333 39.2438 6.272ZM37.6518 6.272C37.6518 5.568 37.5558 4.93867 37.3638 4.384C37.1718 3.82933 36.8998 3.36 36.5478 2.976C36.1958 2.592 35.7691 2.29867 35.2678 2.096C34.7664 1.89333 34.2064 1.792 33.5878 1.792H30.8598V10.744H33.5878C34.2064 10.744 34.7664 10.6427 35.2678 10.44C35.7691 10.2373 36.1958 9.94667 36.5478 9.568C36.8998 9.184 37.1718 8.71467 37.3638 8.16C37.5558 7.60533 37.6518 6.976 37.6518 6.272ZM47.9116 10.648C48.0663 10.648 48.189 10.6933 48.2796 10.784C48.3703 10.8747 48.4156 10.992 48.4156 11.136V12H40.7676V11.512C40.7676 11.4107 40.789 11.3067 40.8316 11.2C40.8743 11.0933 40.941 10.9947 41.0316 10.904L44.7036 7.216C45.0076 6.90667 45.285 6.61067 45.5356 6.328C45.7863 6.04 45.9996 5.752 46.1756 5.464C46.3516 5.176 46.4876 4.88533 46.5836 4.592C46.6796 4.29333 46.7276 3.976 46.7276 3.64C46.7276 3.304 46.6743 3.01067 46.5676 2.76C46.461 2.504 46.3143 2.29333 46.1276 2.128C45.9463 1.96267 45.7303 1.84 45.4796 1.76C45.229 1.67467 44.9596 1.632 44.6716 1.632C44.3783 1.632 44.109 1.67467 43.8636 1.76C43.6183 1.84533 43.3996 1.96533 43.2076 2.12C43.021 2.26933 42.8636 2.448 42.7356 2.656C42.6076 2.864 42.517 3.09333 42.4636 3.344C42.3996 3.53067 42.3116 3.656 42.1996 3.72C42.093 3.77867 41.941 3.79467 41.7436 3.768L40.9996 3.64C41.0743 3.11733 41.2183 2.656 41.4316 2.256C41.6503 1.85067 41.9223 1.512 42.2476 1.24C42.5783 0.968 42.9543 0.762666 43.3756 0.624C43.797 0.479999 44.253 0.407999 44.7436 0.407999C45.229 0.407999 45.6823 0.479999 46.1036 0.624C46.525 0.767999 46.8903 0.978666 47.1996 1.256C47.509 1.528 47.7516 1.86133 47.9276 2.256C48.1036 2.65067 48.1916 3.09867 48.1916 3.6C48.1916 4.02667 48.1276 4.424 47.9996 4.792C47.8716 5.15467 47.6983 5.50133 47.4796 5.832C47.261 6.16267 47.0076 6.48533 46.7196 6.8C46.437 7.11467 46.1356 7.432 45.8156 7.752L42.7916 10.84C43.005 10.7813 43.221 10.736 43.4396 10.704C43.6583 10.6667 43.869 10.648 44.0716 10.648H47.9116ZM58.8089 9.632C58.8942 9.632 58.9689 9.66667 59.0329 9.736L59.6489 10.4C59.1795 10.944 58.6089 11.368 57.9369 11.672C57.2702 11.976 56.4622 12.128 55.5129 12.128C54.6915 12.128 53.9449 11.9867 53.2729 11.704C52.6009 11.416 52.0275 11.016 51.5529 10.504C51.0782 9.98667 50.7102 9.368 50.4489 8.648C50.1875 7.928 50.0569 7.136 50.0569 6.272C50.0569 5.408 50.1929 4.616 50.4649 3.896C50.7369 3.176 51.1182 2.55733 51.6089 2.04C52.1049 1.52267 52.6969 1.12267 53.3849 0.839999C54.0729 0.551999 54.8329 0.407999 55.6649 0.407999C56.4809 0.407999 57.2009 0.538666 57.8249 0.799999C58.4489 1.06133 58.9982 1.416 59.4729 1.864L58.9609 2.576C58.9289 2.62933 58.8862 2.67467 58.8329 2.712C58.7849 2.744 58.7182 2.76 58.6329 2.76C58.5369 2.76 58.4195 2.70933 58.2809 2.608C58.1422 2.50133 57.9609 2.384 57.7369 2.256C57.5129 2.128 57.2329 2.01333 56.8969 1.912C56.5609 1.80533 56.1475 1.752 55.6569 1.752C55.0649 1.752 54.5235 1.856 54.0329 2.064C53.5422 2.26667 53.1182 2.56267 52.7609 2.952C52.4089 3.34133 52.1342 3.816 51.9369 4.376C51.7395 4.936 51.6409 5.568 51.6409 6.272C51.6409 6.98667 51.7422 7.624 51.9449 8.184C52.1529 8.744 52.4329 9.21867 52.7849 9.608C53.1422 9.992 53.5609 10.2853 54.0409 10.488C54.5262 10.6907 55.0489 10.792 55.6089 10.792C55.9502 10.792 56.2569 10.7733 56.5289 10.736C56.8062 10.6933 57.0595 10.6293 57.2889 10.544C57.5235 10.4587 57.7395 10.352 57.9369 10.224C58.1395 10.0907 58.3395 9.93333 58.5369 9.752C58.6275 9.672 58.7182 9.632 58.8089 9.632ZM62.8804 4.864C63.4777 4.736 64.027 4.672 64.5284 4.672C65.1257 4.672 65.6537 4.76 66.1124 4.936C66.571 5.112 66.9524 5.35467 67.2564 5.664C67.5657 5.97333 67.7977 6.33867 67.9524 6.76C68.1124 7.18133 68.1924 7.64 68.1924 8.136C68.1924 8.744 68.0857 9.29333 67.8724 9.784C67.6644 10.2747 67.3737 10.696 67.0004 11.048C66.6324 11.3947 66.1977 11.6613 65.6964 11.848C65.195 12.0347 64.6537 12.128 64.0724 12.128C63.7364 12.128 63.4137 12.0933 63.1044 12.024C62.795 11.96 62.5044 11.872 62.2324 11.76C61.9657 11.648 61.7177 11.52 61.4884 11.376C61.259 11.232 61.0564 11.08 60.8804 10.92L61.3204 10.312C61.4164 10.1733 61.5417 10.104 61.6964 10.104C61.803 10.104 61.923 10.1467 62.0564 10.232C62.1897 10.312 62.3524 10.4027 62.5444 10.504C62.7364 10.6053 62.9604 10.6987 63.2164 10.784C63.4777 10.864 63.787 10.904 64.1444 10.904C64.5444 10.904 64.9044 10.84 65.2244 10.712C65.5444 10.584 65.819 10.4027 66.0484 10.168C66.2777 9.928 66.4537 9.64267 66.5764 9.312C66.699 8.98133 66.7604 8.61067 66.7604 8.2C66.7604 7.84267 66.707 7.52 66.6004 7.232C66.499 6.944 66.3417 6.69867 66.1284 6.496C65.9204 6.29333 65.659 6.136 65.3444 6.024C65.0297 5.912 64.6617 5.856 64.2404 5.856C63.9524 5.856 63.651 5.88 63.3364 5.928C63.027 5.976 62.7097 6.05333 62.3844 6.16L61.4884 5.896L62.4084 0.535999H67.8404V1.16C67.8404 1.36267 67.7764 1.53067 67.6484 1.664C67.5257 1.792 67.3124 1.856 67.0084 1.856H63.4084L62.8804 4.864Z" fill="black"/>
</svg>
